<?xml version="1.0" encoding="UTF-8" standalone="no"?>
<svg
   width="696.70044pt"
   height="560.00031pt"
   version="1.1"
   viewBox="0 0 696.70044 560.00031"
   id="svg24"
   xmlns="http://www.w3.org/2000/svg"
   xmlns:svg="http://www.w3.org/2000/svg">
  <defs
     id="defs28" />
  <g
     id="g22"
     transform="translate(-1.646739)">
    <path
       d="m 230.36,39.203 c 25.051,0 49.074,9.9492 66.785,27.664 17.715,17.711 27.664,41.734 27.664,66.785 0,25.051 -9.9492,49.074 -27.664,66.785 -17.711,17.715 -41.734,27.664 -66.785,27.664 -25.051,0 -49.074,-9.9492 -66.789,-27.664 -17.711,-17.711 -27.66,-41.734 -27.66,-66.785 0,-25.051 9.9492,-49.074 27.66,-66.785 17.715,-17.715 41.738,-27.664 66.789,-27.664 M 230.36,0 c -35.449,0 -69.441,14.082 -94.508,39.145 -25.062,25.066 -39.145,59.062 -39.145,94.508 0,35.445 14.082,69.441 39.145,94.508 25.066,25.062 59.059,39.145 94.508,39.145 35.445,0 69.441,-14.082 94.508,-39.145 25.062,-25.066 39.145,-59.062 39.145,-94.508 C 363.95831,98.223 349.861,64.258 324.806,39.208 299.755,14.153 265.79,0.056 230.361,0.001 Z"
       id="path16" />
    <path
       d="m 512.09,103.79 c 18.543,0 36.324,7.3711 49.43,20.492 13.105,13.117 20.461,30.906 20.441,49.449 -0.0156,18.543 -7.4062,36.32 -20.535,49.414 -13.133,13.09 -30.93,20.426 -49.473,20.391 -18.543,-0.0352 -36.312,-7.4414 -49.391,-20.586 -13.082,-13.141 -20.398,-30.945 -20.348,-49.488 0.0547,-18.496 7.4414,-36.219 20.539,-49.277 13.0976,-13.058 30.84,-20.395 49.336,-20.395 m 0,-39.203 v 0.0039 c -28.875,0 -56.566,11.469 -76.984,31.887 -20.418,20.418 -31.887,48.109 -31.887,76.984 0,28.875 11.469,56.566 31.887,76.984 20.418,20.418 48.109,31.887 76.984,31.887 28.875,0 56.566,-11.469 76.984,-31.887 20.418,-20.418 31.887,-48.109 31.887,-76.984 0,-28.875 -11.469,-56.566 -31.887,-76.984 -20.418,-20.418 -48.109,-31.887 -76.984,-31.887 z"
       id="path18" />
    <path
       d="m 659.55,352.61 c -24.758,-24.824 -58.375,-38.781 -93.438,-38.793 h -108.26 c -24.734,0.0898 -48.945,7.1289 -69.871,20.312 -26.91,-18.262 -58.68,-28.023 -91.203,-28.031 H 164.138 C 121.06,306.00816 79.708,323.032 49.178,353.422 18.764,383.875 1.67,425.149 1.647,468.192 v 21.734 c -0.050782,18.602 7.3125,36.457 20.469,49.609 13.152,13.152 31.008,20.52 49.609,20.465 h 317.27 c 13.066,0.0391 25.879,-3.5977 36.977,-10.492 11.098,-6.8984 20.035,-16.773 25.785,-28.508 h 189.51 c 15.137,0 29.656,-6.0117 40.359,-16.715 10.703,-10.707 16.719,-25.223 16.719,-40.359 v -17.062 c 0.20313,-35.344 -13.773,-69.293 -38.797,-94.25 z M 419.87,489.92 v 0.004 c 0,8.207 -3.25,16.078 -9.0312,21.902 -5.7852,5.8203 -13.637,9.1211 -21.844,9.1719 h -317.27 c -8.207,-0.0508 -16.059,-3.3516 -21.844,-9.1719 -5.7852,-5.8242 -9.0312,-13.695 -9.0312,-21.902 V 468.19 c 0.05469,-32.648 13.074,-63.934 36.195,-86.98 23.125,-23.047 54.453,-35.961 87.098,-35.906 h 132.84 c 32.684,0 64.023,12.996 87.113,36.121 23.086,23.129 36.031,54.488 35.977,87.172 z m 239.27,-26 v 0.004 c 0,4.7383 -1.8828,9.2852 -5.2344,12.637 -3.3555,3.3516 -7.8984,5.2383 -12.641,5.2383 h -182.81 v -13.609 c -0.20312,-39.289 -14.637,-77.172 -40.621,-106.64 12.215,-5.668 25.527,-8.582 38.996,-8.5312 h 108.26 c 24.992,-0.27344 49.039,9.5195 66.73,27.172 17.691,17.652 27.535,41.68 27.316,66.672 z"
       id="path20" />
  </g>
</svg>
