<?xml version="1.0" encoding="UTF-8" standalone="no"?>
<svg
   width="310.85822pt"
   height="310.83377pt"
   version="1.1"
   viewBox="0 0 310.85822 310.83377"
   id="svg459"
   sodipodi:docname="globe.svg"
   xmlns:inkscape="http://www.inkscape.org/namespaces/inkscape"
   xmlns:sodipodi="http://sodipodi.sourceforge.net/DTD/sodipodi-0.dtd"
   xmlns="http://www.w3.org/2000/svg"
   xmlns:svg="http://www.w3.org/2000/svg">
  <sodipodi:namedview
     id="namedview461"
     pagecolor="#ffffff"
     bordercolor="#000000"
     borderopacity="0.25"
     inkscape:showpageshadow="2"
     inkscape:pageopacity="0.0"
     inkscape:pagecheckerboard="0"
     inkscape:deskcolor="#d1d1d1"
     inkscape:document-units="pt"
     showgrid="false" />
  <defs
     id="defs375" />
  <g
     id="g457"
     transform="translate(-194.56588,-124.56587)">
    <path
       d="m 503.47,255.67 c -3.2773,-20.719 -10.527,-40.18 -21.531,-57.82 -10.641,-17.051 -24.305,-31.723 -40.629,-43.566 -16.324,-11.871 -34.496,-20.328 -53.984,-25.172 -20.188,-5.0117 -40.938,-5.8789 -61.656,-2.6055 -20.719,3.2773 -40.18,10.527 -57.82,21.531 -17.051,10.641 -31.723,24.305 -43.566,40.629 -11.871,16.324 -20.328,34.496 -25.172,53.984 -5.0117,20.188 -5.8789,40.938 -2.6055,61.656 3.2773,20.719 10.527,40.18 21.531,57.82 10.641,17.051 24.305,31.723 40.629,43.566 16.324,11.871 34.496,20.328 53.984,25.172 0.16797,0.0547 0.36328,0.0859 0.53125,0.14062 0.0547,0.0273 0.11328,0.0273 0.16797,0.0273 11.984,2.9102 24.164,4.3672 36.398,4.3672 8.1758,0 16.352,-0.64453 24.555,-1.9609 20.719,-3.2773 40.18,-10.527 57.82,-21.531 17.051,-10.641 31.723,-24.305 43.566,-40.629 11.844,-16.324 20.328,-34.496 25.172,-53.984 5.0156,-20.156 5.9141,-40.906 2.6094,-61.625 z M 327.04,135.16 c 7.7852,-1.2305 15.539,-1.8477 23.27,-1.8477 30.715,0 60.562,9.6328 85.875,28.027 10.555,7.6719 19.906,16.547 27.887,26.402 -0.0859,0.0547 -0.16797,0.11328 -0.25391,0.16797 -2.5195,1.8203 -5.125,3.7227 -7.6445,5.6836 -2.7422,2.1289 -5.4023,4.3945 -7.9805,6.5781 -7.0547,5.9922 -13.746,11.648 -21.645,15.062 -9.5742,4.1445 -23.102,3.9492 -29.262,-4.6211 -1.4297,-1.9609 -2.6328,-4.4531 -3.8906,-7.0547 -3.1641,-6.4688 -7.0859,-14.504 -15.988,-14.98 -7.7266,-0.42188 -12.402,5.2656 -16.492,10.305 -2.8828,3.5273 -5.6016,6.8594 -8.8477,7.6172 -6.9141,1.5977 -12.938,-9.3789 -14.617,-12.797 -1.9023,-3.8633 -4.5625,-8.8203 -8.1211,-12.711 -4.3672,-4.7617 -9.2695,-7 -14.617,-6.6914 -8.1211,0.47656 -13.273,6.6367 -17.809,12.066 -0.75781,0.92578 -1.4844,1.793 -2.2109,2.6055 -2.7422,3.1367 -6.8867,5.4609 -9.8281,5.5156 -1.5977,0.0273 -2.3789,-0.58984 -2.8281,-1.0625 -1.2305,-1.2891 -1.6523,-3.6953 -2.1016,-6.2734 -0.11328,-0.55859 -0.19531,-1.1211 -0.30859,-1.6797 -1.8203,-9.4922 -7.0859,-18.34 -14.727,-25.004 18.238,-12.988 39.379,-21.695 62.141,-25.309 z m -121.88,167.8 c -3.8906,-24.527 -1.5664,-49.086 6.5234,-71.848 9.9414,-2.4375 20.664,0.92578 32.621,5.1797 9.6328,3.4453 21,9.3789 20.41,18.117 -0.19531,3.0234 -1.8477,6.4688 -3.4453,9.8281 -2.8555,5.9922 -6.4102,13.469 -1.6523,20.41 3.5547,5.207 9.4648,6.3008 14.645,7.2539 3.8086,0.69922 7.4219,1.3711 9.0703,3.5 3.1641,4.0586 -1.9609,11.871 -3.5859,14.195 -3.8633,5.4609 -10.359,14.559 -6.3281,23.633 2.4062,5.375 7.3633,8.0078 11.762,10.359 0.72656,0.39062 1.3984,0.75781 2.0703,1.1211 3.1914,1.793 6.3555,4.8164 5.7695,7.2539 -0.39062,1.625 -2.2383,2.8828 -5.2344,4.7305 -2.9961,1.8477 -6.4102,3.9766 -8.3984,7.6445 -3.6133,6.6641 -0.36328,14.59 4.1992,19.125 2.7148,2.6875 5.7969,4.5938 8.793,6.4414 1.5391,0.95312 2.9961,1.8477 4.3672,2.8281 8.4844,6.0742 13.637,17.137 13.609,28.559 -16.492,-4.6484 -32.227,-12.234 -46.508,-22.598 -31.723,-23.074 -52.555,-57.039 -58.688,-95.734 z m 263.48,63.223 c -17.473,24.051 -41.273,41.859 -68.656,51.715 0.50391,-7.0547 2.6055,-14.477 6.1055,-21.363 6.8047,-13.383 17.754,-24.246 28.363,-34.242 1.5391,-1.4297 1.8203,-3.7539 0.69922,-5.5156 -5.3203,-8.4297 -10.836,-17.137 -12.906,-26.711 -2.1289,-9.8008 0.25391,-19.543 6.0742,-24.836 7.6445,-6.9453 19.852,-5.8789 27.973,-1.2031 8.0938,4.6484 14.672,12.852 20.188,25.059 2.1836,4.8438 4.0039,9.8828 5.4883,15.008 -3.7539,7.6406 -8.2031,15.062 -13.328,22.09 z m 18.535,-34.133 c -0.83984,-2.2383 -1.7656,-4.4258 -2.7148,-6.5781 -6.2734,-13.945 -14.055,-23.438 -23.801,-29.035 -5.8516,-3.3594 -12.738,-5.0977 -19.434,-4.8984 -7.3633,0.22266 -13.859,2.7148 -18.789,7.1953 -8.2305,7.4766 -11.562,20.188 -8.7344,33.18 2.1289,9.8008 7.2227,18.594 12.152,26.488 -9.9961,9.5195 -20.691,20.691 -27.551,34.16 -4.5938,9.043 -7.0859,18.93 -7.168,28.195 -5.9375,1.707 -11.984,3.0781 -18.172,4.0586 -7.7852,1.2305 -15.539,1.8477 -23.27,1.8477 -10.387,0 -20.637,-1.0938 -30.688,-3.2773 0.75781,-15.094 -5.7383,-29.625 -17.219,-37.828 -1.625,-1.1484 -3.2773,-2.1836 -4.8711,-3.1641 -2.6875,-1.6523 -5.207,-3.1914 -7.1953,-5.1797 -2.3516,-2.3242 -4.0898,-6.1875 -2.6875,-8.7656 0.89453,-1.625 3.0508,-2.9688 5.3203,-4.3672 3.5,-2.1836 7.8672,-4.8711 9.1289,-10.109 1.7656,-7.3633 -4.0039,-13.578 -9.9961,-16.941 -0.72656,-0.42188 -1.4844,-0.8125 -2.2109,-1.2031 -3.4453,-1.8477 -6.7188,-3.5859 -7.8672,-6.1875 -1.8477,-4.1445 1.6797,-9.6875 5.4609,-15.008 6.9453,-9.7422 8.1484,-18.508 3.3594,-24.641 -3.6953,-4.7305 -9.3789,-5.7969 -14.363,-6.7188 -4.0312,-0.75781 -7.5039,-1.3984 -9.0156,-3.5859 -1.8203,-2.6602 -0.30859,-6.1875 2.3516,-11.703 1.8477,-3.8906 3.9766,-8.3164 4.2852,-13.02 0.44922,-6.7188 -2.5195,-12.711 -8.8477,-17.836 -4.2578,-3.4453 -10.078,-6.4961 -17.332,-9.1016 -8.8203,-3.1641 -20.328,-7.2539 -31.836,-6.3555 4.2266,-9.7422 9.5742,-19.098 15.961,-27.887 7.6719,-10.555 16.547,-19.906 26.402,-27.887 6.9453,5.5156 11.73,13.105 13.301,21.223 0.0859,0.50391 0.19531,1.0078 0.28125,1.5391 0.58984,3.3867 1.3438,7.6172 4.3945,10.809 2.4375,2.5469 5.6562,3.8359 9.3242,3.7812 6.5781,-0.14062 12.852,-4.6484 16.211,-8.4844 0.8125,-0.89453 1.5977,-1.8477 2.3516,-2.7734 3.7539,-4.4805 7.2812,-8.6797 11.621,-8.9336 6.2148,-0.36328 10.922,7.5898 14.363,14.531 1.793,3.6406 4.8164,8.793 8.9336,12.602 6.0469,5.5703 11.762,5.7109 15.484,4.8438 6.1328,-1.3984 10.137,-6.3008 13.664,-10.586 3.6953,-4.5352 6.1875,-7.2812 9.2383,-7.1133 3.5273,0.19531 5.6016,3.9492 8.5977,10.109 1.3711,2.8281 2.8281,5.7695 4.6758,8.3438 4.1719,5.7969 10.613,9.4375 18.648,10.555 1.6797,0.22266 3.3594,0.33594 5.0977,0.33594 5.4336,0 11.004,-1.1484 16.102,-3.3594 9.1016,-3.9492 16.574,-10.277 23.828,-16.406 2.5195,-2.1289 5.125,-4.3398 7.7266,-6.3828 2.3789,-1.875 4.9297,-3.7227 7.3906,-5.5156 0.14062,-0.0859 0.25391,-0.19531 0.39062,-0.28125 13.074,18.285 21.84,39.48 25.453,62.328 3.9922,25.652 1.2773,51.359 -7.7383,74.988 z"
       id="path377" />
    <path
       d="m 373.77,318.75 c -6.5781,-1.625 -14.672,-0.55859 -23.379,3.0781 -6.7773,2.8281 -13.777,7.1406 -19.207,11.871 -8.2031,7.1133 -12.738,16.773 -12.152,25.816 0.33594,5.1523 2.6602,10.332 6.3555,14.223 3.8633,4.0586 8.7656,6.2422 13.832,6.2422 h 0.58984 c 4.3398,-0.14062 8.2031,-1.8203 11.621,-3.332 1.2031,-0.53125 2.3242,-1.0078 3.4453,-1.4297 1.2305,-0.47656 2.5469,-0.86719 3.9219,-1.2891 2.9961,-0.92578 6.0742,-1.875 9.043,-3.6406 7.4492,-4.4531 12.266,-13.273 12.906,-23.605 0.53125,-8.707 -1.7656,-17.219 -3.7812,-24.754 -0.42578,-1.5859 -1.6289,-2.7891 -3.1953,-3.1797 z m -1.7656,27.355 c -0.36328,5.7383 -2.8281,13.133 -8.6523,16.633 -2.043,1.2305 -4.5352,1.9883 -7.1406,2.8008 -1.4297,0.44922 -2.9102,0.89453 -4.3945,1.457 -1.3438,0.50391 -2.6328,1.0625 -3.8633,1.625 -2.9414,1.2891 -5.7383,2.4922 -8.3984,2.6055 h -0.28125 c -6.1055,0 -11.059,-6.4102 -11.453,-12.293 -0.42188,-6.3281 2.9961,-13.273 9.1562,-18.621 8.1484,-7.0547 20.777,-13.523 30.52,-13.523 0.61719,0 1.2031,0.0273 1.793,0.0859 1.6211,6.3477 3.1055,12.844 2.7148,19.23 z"
       id="path379" />
  </g>
</svg>
